<svg xmlns="http://www.w3.org/2000/svg" xmlns:xlink="http://www.w3.org/1999/xlink" version="1.1" x="0px" y="0px" viewBox="0 0 100 125" enable-background="new 0 0 100 100" xml:space="preserve"><g><path d="M90.431,52.965l-3.93-25.698c-0.303-1.974-2.012-3.382-3.951-3.365l0.001-0.006l-5.029,0.001l-4.188,16.075l-0.35-14.39   l-1.118-1.687v0.001v-0.001l-1.119,1.687l-0.349,14.39l-4.188-16.075l-5.029-0.001l0.001,0.006c-1.94-0.017-3.648,1.392-3.95,3.365   L53.3,52.965c-0.332,2.167,1.157,4.194,3.323,4.525c2.169,0.331,4.193-1.157,4.526-3.325l1.105-7.23l-0.007,41.475   c0,2.396,1.948,4.341,4.342,4.341c2.401,0,4.344-1.944,4.344-4.341l0.602-25.272h0.33h0.331l0.601,25.272   c0,2.396,1.943,4.341,4.343,4.341c2.396,0,4.342-1.944,4.342-4.341l-0.006-41.475l1.105,7.23c0.332,2.168,2.357,3.656,4.525,3.325   C89.273,57.159,90.763,55.132,90.431,52.965z"/><circle cx="71.865" cy="15.052" r="7.744"/><circle cx="28.134" cy="15.052" r="7.744"/><path d="M35.149,40.149l3.501,12.899c0.488,1.71,2.271,2.7,3.981,2.212s2.7-2.271,2.211-3.981l-6.797-25.047   c-0.388-1.355-1.589-2.255-2.921-2.328l-0.003-0.003H35.09c-0.08-0.003-0.16-0.003-0.24,0h-2.723c0,0-2.096,10.27-4.032,10.27   s-4.033-10.274-4.033-10.274h-2.83l-0.002,0.002c-1.365,0.039-2.608,0.95-3.003,2.334l-7.306,25.047   c-0.488,1.71,0.502,3.493,2.212,3.981c1.709,0.488,3.493-0.502,3.98-2.212l3.763-12.897c0.497,1.67,0.874,3.583,0.874,5.546   c0,5.78-9.729,26.892-9.729,26.892l8.033-1.34L20.052,89.12c0,2.004,1.626,3.63,3.629,3.63c2.008,0,3.632-1.626,3.632-3.63   l-0.025-19.079l1.67-0.278L28.922,89.12c0,2.004,1.627,3.63,3.631,3.63c2.003,0,3.628-1.626,3.628-3.63l0.006-20.564l8.781-1.466   c0,0-10.747-15.411-10.747-21.393C34.221,43.7,34.619,41.799,35.149,40.149z"/></g><text x="0" y="115" fill="#000000" font-size="5px" font-weight="bold" font-family="'Helvetica Neue', Helvetica, Arial-Unicode, Arial, Sans-serif">Created by chris dawson</text><text x="0" y="120" fill="#000000" font-size="5px" font-weight="bold" font-family="'Helvetica Neue', Helvetica, Arial-Unicode, Arial, Sans-serif">from the Noun Project</text></svg>